<?xml version="1.0" encoding="UTF-8"?>
<svg id="Layer_1" data-name="Layer 1" xmlns="http://www.w3.org/2000/svg" viewBox="0 0 130.82 81.65">
  <defs>
    <style>
      .cls-1 {
        fill: none;
        stroke: #6497d6;
        stroke-linecap: square;
        stroke-miterlimit: 10;
        stroke-width: 5px;
      }

      .cls-2 {
        letter-spacing: -.01em;
      }

      .cls-3 {
        letter-spacing: .03em;
      }

      .cls-4 {
        fill: #fc8d59;
        font-family: Futura-CondensedExtraBold, Futura;
        font-size: 13px;
        font-weight: 700;
      }

      .cls-5 {
        letter-spacing: .02em;
      }

      .cls-6 {
        letter-spacing: 0em;
      }
    </style>
  </defs>
  <path class="cls-1" d="M18.81,2.5c3.91,0,5.87.96,7.82,1.92s3.91,1.92,7.82,1.92,5.87-.96,7.82-1.92,3.91-1.92,7.82-1.92,5.87.96,7.82,1.92,3.91,1.92,7.82,1.92,5.87-.96,7.82-1.92,3.91-1.92,7.82-1.92,5.87.96,7.82,1.92,3.91,1.92,7.82,1.92,5.87-.96,7.82-1.92,3.91-1.92,7.82-1.92,5.87.96,7.82,1.92c1.96.96,3.91,1.92,7.82,1.92"/>
  <path class="cls-1" d="M34.45,23.34c3.91,0,5.87-.96,7.82-1.92s3.91-1.92,7.82-1.92,5.87.96,7.82,1.92,3.91,1.92,7.82,1.92,5.87-.96,7.82-1.92,3.91-1.92,7.82-1.92,5.87.96,7.82,1.92,3.91,1.92,7.82,1.92,5.87-.96,7.82-1.92,3.91-1.92,7.82-1.92,5.87.96,7.82,1.92,3.91,1.92,7.82,1.92"/>
  <path class="cls-1" d="M3.2,57.34c3.91,0,5.87-.96,7.82-1.92,1.96-.96,3.91-1.92,7.82-1.92s5.87.96,7.82,1.92,3.91,1.92,7.82,1.92,5.87-.96,7.82-1.92c1.96-.96,3.91-1.92,7.82-1.92s5.87.96,7.82,1.92,3.91,1.92,7.82,1.92,5.87-.96,7.82-1.92,3.91-1.92,7.82-1.92,5.87.96,7.82,1.92,3.91,1.92,7.82,1.92,5.87-.96,7.82-1.92,3.91-1.92,7.82-1.92"/>
  <path class="cls-1" d="M34.45,74.34c3.91,0,5.87-.96,7.82-1.92s3.91-1.92,7.82-1.92,5.87.96,7.82,1.92,3.91,1.92,7.82,1.92,5.87-.96,7.82-1.92,3.91-1.92,7.82-1.92,5.87.96,7.82,1.92,3.91,1.92,7.82,1.92,5.87-.96,7.82-1.92,3.91-1.92,7.82-1.92,5.87.96,7.82,1.92,3.91,1.92,7.82,1.92"/>
  <path class="cls-1" d="M65.75,40.34c3.91,0,5.87-.96,7.82-1.92s3.91-1.92,7.82-1.92,5.87.96,7.82,1.92,3.91,1.92,7.82,1.92,5.87-.96,7.82-1.92,3.91-1.92,7.82-1.92,5.87.96,7.82,1.92,3.91,1.92,7.82,1.92"/>
  <text class="cls-4" transform="translate(0 77.45)"><tspan class="cls-3" x="0" y="0">L</tspan><tspan x="5.77" y="0">AB</tspan></text>
  <text class="cls-4" transform="translate(0 26.3)"><tspan x="0" y="0">LI</tspan></text>
  <text class="cls-4" transform="translate(0 43.34)"><tspan x="0" y="0">RESEA</tspan><tspan class="cls-2" x="33.71" y="0">R</tspan><tspan class="cls-5" x="41.41" y="0">C</tspan><tspan class="cls-6" x="48.18" y="0">H</tspan></text>
</svg>