<?xml version="1.0" encoding="UTF-8"?>
<svg id="Layer_1" data-name="Layer 1" xmlns="http://www.w3.org/2000/svg" viewBox="0 0 161.41 119.72">
  <defs>
    <style>
      .cls-1 {
        fill: #fc8d59;
        font-family: Futura-Medium, Futura;
        font-size: 33.6px;
        font-weight: 500;
      }

      .cls-2 {
        fill: none;
        stroke: #6497d6;
        stroke-linecap: round;
        stroke-miterlimit: 10;
        stroke-width: 5px;
      }
    </style>
  </defs>
  <path class="cls-2" d="M18.11,2.5c3.91,0,5.87.96,7.82,1.92s3.91,1.92,7.82,1.92,5.87-.96,7.82-1.92,3.91-1.92,7.82-1.92,5.87.96,7.82,1.92,3.91,1.92,7.82,1.92,5.87-.96,7.82-1.92,3.91-1.92,7.82-1.92,5.87.96,7.82,1.92,3.91,1.92,7.82,1.92,5.87-.96,7.82-1.92,3.91-1.92,7.82-1.92,5.87.96,7.82,1.92c1.96.96,3.91,1.92,7.82,1.92s5.87-.96,7.82-1.92,3.91-1.92,7.82-1.92,5.87.96,7.82,1.92,3.91,1.92,7.82,1.92"/>
  <path class="cls-2" d="M33.75,23.34c3.91,0,5.87-.96,7.82-1.92s3.91-1.92,7.82-1.92,5.87.96,7.82,1.92,3.91,1.92,7.82,1.92,5.87-.96,7.82-1.92,3.91-1.92,7.82-1.92,5.87.96,7.82,1.92,3.91,1.92,7.82,1.92,5.87-.96,7.82-1.92,3.91-1.92,7.82-1.92,5.87.96,7.82,1.92,3.91,1.92,7.82,1.92,5.87-.96,7.82-1.92,3.91-1.92,7.82-1.92"/>
  <path class="cls-2" d="M2.5,57.34c3.91,0,5.87-.96,7.82-1.92,1.96-.96,3.91-1.92,7.82-1.92s5.87.96,7.82,1.92,3.91,1.92,7.82,1.92,5.87-.96,7.82-1.92c1.96-.96,3.91-1.92,7.82-1.92s5.87.96,7.82,1.92,3.91,1.92,7.82,1.92,5.87-.96,7.82-1.92,3.91-1.92,7.82-1.92,5.87.96,7.82,1.92,3.91,1.92,7.82,1.92,5.87-.96,7.82-1.92,3.91-1.92,7.82-1.92"/>
  <path class="cls-2" d="M33.75,74.34c3.91,0,5.87-.96,7.82-1.92s3.91-1.92,7.82-1.92,5.87.96,7.82,1.92,3.91,1.92,7.82,1.92,5.87-.96,7.82-1.92,3.91-1.92,7.82-1.92,5.87.96,7.82,1.92,3.91,1.92,7.82,1.92,5.87-.96,7.82-1.92,3.91-1.92,7.82-1.92,5.87.96,7.82,1.92,3.91,1.92,7.82,1.92,5.87-.96,7.82-1.92,3.91-1.92,7.82-1.92"/>
  <path class="cls-2" d="M65.05,40.34c3.91,0,5.87-.96,7.82-1.92s3.91-1.92,7.82-1.92,5.87.96,7.82,1.92,3.91,1.92,7.82,1.92,5.87-.96,7.82-1.92,3.91-1.92,7.82-1.92,5.87.96,7.82,1.92,3.91,1.92,7.82,1.92,5.87-.96,7.82-1.92,3.91-1.92,7.82-1.92,5.87.96,7.82,1.92,3.91,1.92,7.82,1.92"/>
  <text class="cls-1" transform="translate(10.66 110.03)"><tspan x="0" y="0" xml:space="preserve">m  a  r  e</tspan></text>
</svg>